<?xml version="1.0" standalone="no"?>
<!DOCTYPE svg PUBLIC "-//W3C//DTD SVG 20010904//EN"
 "http://www.w3.org/TR/2001/REC-SVG-20010904/DTD/svg10.dtd">
<svg version="1.0" xmlns="http://www.w3.org/2000/svg"
 width="1500.000000pt" height="1500.000000pt" viewBox="0 0 1500.000000 1500.000000"
 preserveAspectRatio="xMidYMid meet">
<metadata>
Created by potrace 1.11, written by Peter Selinger 2001-2013
</metadata>
<g transform="translate(0.000000,1500.000000) scale(0.100000,-0.100000)"
fill="#000000" stroke="none">
<path d="M9838 13583 c6 -2 18 -2 25 0 6 3 1 5 -13 5 -14 0 -19 -2 -12 -5z"/>
<path d="M9798 13573 c7 -3 16 -2 19 1 4 3 -2 6 -13 5 -11 0 -14 -3 -6 -6z"/>
<path d="M7465 13526 c-39 -18 -277 -143 -530 -277 -449 -238 -526 -276 -880
-435 -251 -113 -266 -117 -359 -111 l-80 5 46 -28 c25 -16 48 -33 51 -37 8
-13 -111 -91 -278 -183 -196 -108 -907 -487 -1285 -686 l-65 -34 45 41 c111
101 950 819 1024 877 16 12 24 22 19 22 -20 0 -153 -102 -328 -251 -335 -286
-577 -474 -870 -679 -66 -46 -151 -108 -190 -138 -94 -74 -136 -91 -215 -92
l-65 -1 37 -19 c20 -11 40 -25 43 -30 13 -21 -140 -183 -356 -376 -122 -110
-358 -318 -523 -463 -166 -145 -321 -282 -346 -305 -24 -22 -41 -34 -38 -25
18 45 624 1003 672 1061 17 21 50 52 73 70 52 38 48 51 -4 16 -97 -64 -144
-125 -353 -454 -309 -485 -415 -627 -694 -929 -193 -209 -231 -275 -301 -516
-20 -68 -47 -152 -61 -187 -14 -36 -219 -369 -477 -775 -249 -392 -467 -737
-484 -767 -143 -251 -105 -534 95 -722 61 -57 192 -146 777 -528 477 -312 594
-391 645 -437 l50 -45 27 20 c33 23 68 61 62 65 -2 2 -337 222 -744 488 -548
359 -756 500 -800 544 -145 144 -185 369 -100 560 23 52 942 1500 1019 1606
l44 60 7 -33 c13 -58 70 -171 122 -240 l51 -66 -34 -57 c-19 -31 -188 -298
-376 -593 -188 -295 -353 -564 -367 -597 -36 -87 -41 -237 -12 -333 22 -75 79
-168 133 -218 18 -18 276 -191 573 -386 297 -195 585 -384 640 -421 l100 -66
55 53 c30 30 65 59 77 65 11 6 137 54 280 107 142 53 273 102 291 109 l32 14
-26 58 c-55 121 -153 374 -208 538 -56 167 -120 400 -114 415 2 5 65 -70 142
-167 l138 -175 63 -162 c60 -155 107 -272 155 -383 13 -29 28 -53 34 -53 9 0
285 99 294 106 2 1 -70 91 -160 201 -261 316 -449 545 -601 732 -78 95 -353
432 -612 748 -258 316 -487 595 -508 621 -135 165 -161 378 -68 567 44 88 68
114 243 262 64 54 406 344 760 644 692 587 786 664 775 636 -45 -117 -54 -267
-23 -370 17 -59 16 -67 -15 -102 -17 -19 -14 -28 104 -276 67 -141 148 -312
179 -380 32 -68 78 -169 104 -224 25 -55 52 -116 59 -135 31 -83 83 -191 88
-184 3 5 11 37 17 72 7 34 16 64 19 67 4 2 38 -58 75 -134 l69 -137 -6 -195
c-3 -107 -2 -183 2 -169 l8 25 7 -30 c4 -16 11 -44 16 -60 10 -31 4 -65 -20
-117 -7 -15 -16 -25 -20 -23 -8 5 -5 -189 5 -395 11 -224 43 -485 95 -789 15
-90 17 -117 7 -130 -7 -9 -41 -52 -77 -95 l-64 -78 -13 49 c-54 205 -118 615
-149 943 l-7 75 -12 -40 c-10 -34 -52 -140 -100 -250 -7 -16 -25 -59 -39 -95
-15 -36 -31 -74 -36 -85 -5 -11 -27 -65 -50 -120 -23 -55 -52 -124 -66 -153
-13 -29 -36 -80 -51 -113 -18 -40 -31 -58 -40 -55 -8 3 12 -27 44 -68 244
-308 286 -362 290 -371 2 -6 -35 -69 -83 -139 -47 -70 -84 -128 -82 -130 1 -1
19 -9 40 -18 20 -9 48 -32 63 -50 18 -23 165 -402 436 -1124 225 -599 423
-1125 440 -1168 62 -156 147 -271 250 -337 90 -58 202 -78 240 -43 19 17 21
26 16 79 -4 33 -13 87 -22 120 -9 33 -207 570 -440 1192 -303 807 -425 1144
-425 1173 0 22 6 55 14 73 8 18 133 150 278 295 l264 263 989 370 c1066 397
1044 391 1123 349 20 -10 222 -140 447 -289 226 -148 412 -267 414 -265 2 2
-32 97 -75 211 -88 232 -96 281 -57 344 12 19 138 149 280 289 l258 255 545
203 c324 120 559 202 579 202 45 0 112 -33 137 -67 12 -16 49 -103 84 -195 34
-93 65 -168 69 -168 3 0 31 35 61 78 248 349 734 764 1126 961 191 96 395 167
594 206 47 10 90 21 95 25 6 4 49 11 98 15 48 4 90 12 94 18 3 6 1 7 -5 3 -11
-7 -171 -8 -227 -2 -16 2 -75 21 -130 43 -129 52 -355 125 -478 154 l-97 23 0
45 c0 137 50 804 61 817 16 19 45 18 509 -11 217 -14 401 -25 407 -25 7 0 19
-11 28 -23 14 -22 12 -67 -15 -483 -40 -622 -39 -559 -15 -562 48 -6 47 -12
81 519 19 309 28 514 23 532 -10 36 -25 55 -59 72 -31 16 -909 73 -953 61 -15
-3 -72 -47 -127 -97 -76 -69 -102 -99 -110 -127 -5 -20 -17 -152 -25 -292 -8
-140 -18 -284 -21 -320 l-6 -66 -35 4 -35 4 6 97 c6 86 5 99 -14 129 -11 18
-35 39 -53 46 -21 9 -190 23 -483 41 -519 31 -466 37 -585 -71 -99 -89 -117
-111 -124 -156 -8 -44 -2 -42 -165 -58 -63 -7 -171 -20 -240 -30 -68 -11 -126
-17 -128 -15 -5 4 70 111 203 290 303 408 694 807 1057 1080 698 524 1370 700
1843 481 285 -132 491 -420 570 -796 20 -96 35 -123 35 -64 0 21 14 244 30
494 34 515 35 575 16 645 -31 117 -110 229 -206 294 -121 80 -9 70 -1930 186
-1630 98 -1739 104 -1803 90 -182 -38 -335 -188 -382 -371 -9 -39 -40 -468
-90 -1249 -42 -654 -78 -1204 -80 -1221 -5 -27 -11 -32 -63 -48 -31 -10 -106
-33 -166 -52 -59 -19 -110 -33 -113 -30 -4 4 37 692 83 1391 8 132 35 539 59
905 47 736 44 714 124 837 48 75 109 128 189 164 83 38 121 47 222 54 56 4
186 31 380 80 162 40 292 74 288 74 -3 1 -87 -12 -185 -29 -244 -40 -545 -73
-623 -67 -65 4 -134 31 -159 61 -26 31 -28 15 -5 -31 30 -58 30 -70 2 -79 -13
-3 -68 -26 -124 -49 -141 -60 -308 -103 -445 -114 -115 -10 -148 -18 -249 -64
-49 -22 -181 -55 -785 -197 -518 -122 -515 -121 -608 -167 -184 -93 -294 -252
-318 -463 -8 -74 -13 -88 -36 -106 l-26 -21 31 -179 c17 -98 38 -215 47 -259
28 -146 33 -169 70 -380 20 -115 43 -249 50 -298 7 -48 18 -102 24 -120 5 -17
12 -58 15 -90 7 -73 27 -188 35 -204 3 -6 17 18 31 53 30 79 27 85 71 -159
l31 -177 -25 -148 c-19 -111 -24 -175 -22 -262 2 -113 2 -115 -25 -145 -25
-27 -29 -43 -44 -165 -25 -210 -34 -322 -42 -488 l-7 -152 -91 -65 c-78 -55
-92 -62 -100 -48 -8 14 -2 341 10 493 10 133 12 193 6 163 -5 -21 -43 -70
-122 -153 -63 -67 -120 -127 -125 -134 -211 -231 -249 -268 -262 -250 -25 34
-13 6 83 -190 l96 -197 -24 -18 c-12 -10 -72 -61 -133 -113 -95 -82 -112 -93
-121 -79 -6 9 -145 279 -309 601 -725 1422 -1046 2058 -1057 2095 -19 62 -16
239 4 306 36 114 123 217 248 291 113 67 1533 819 1820 964 124 62 342 178
485 257 143 79 492 266 775 416 462 245 546 291 529 291 -2 0 -36 -15 -74 -34z
m668 -365 c-84 -60 -170 -197 -194 -307 -7 -33 -18 -62 -23 -66 -16 -11 -265
-70 -926 -218 -559 -126 -521 -116 -601 -157 -164 -85 -269 -260 -269 -449 0
-46 19 -158 56 -329 30 -143 91 -429 134 -635 44 -206 114 -535 155 -730 153
-718 175 -824 175 -839 -1 -16 -298 -187 -307 -177 -6 5 -26 100 -138 626 -35
168 -81 379 -100 470 -20 91 -74 345 -121 565 -47 220 -103 486 -125 590 -22
105 -51 242 -65 305 -88 412 -86 399 -74 481 27 191 121 324 285 404 57 28
151 52 500 129 237 53 491 110 565 126 74 17 167 37 205 45 99 20 416 91 505
114 41 11 134 31 205 45 72 14 139 27 150 29 45 10 46 6 8 -22z m1767 -590
c25 -18 25 -20 23 -157 -1 -77 -5 -156 -8 -176 -5 -36 -3 -38 30 -52 19 -8 39
-25 44 -38 4 -13 3 -98 -3 -192 l-11 -168 -48 -43 c-35 -32 -47 -51 -47 -71 0
-21 -15 -43 -61 -87 l-61 -59 -96 6 c-287 19 -274 17 -300 43 -22 22 -24 31
-19 74 4 35 2 51 -6 54 -7 2 -50 5 -97 8 l-84 4 -74 -70 -74 -69 -161 6 c-89
4 -174 12 -189 17 -34 14 -49 51 -46 119 l3 55 -45 3 c-69 4 -88 10 -105 36
-14 20 -14 44 -4 192 6 93 14 175 18 182 4 7 72 71 152 143 l144 130 160 -7
c94 -3 173 -12 192 -19 35 -15 44 -42 40 -125 -2 -43 -1 -45 25 -45 20 0 40
16 85 66 32 36 109 112 172 168 l113 103 157 -7 c127 -5 161 -10 181 -24z
m-2606 -401 c4 -74 9 -170 13 -214 l6 -79 -66 52 c-37 28 -69 51 -72 51 -3 0
-44 -53 -92 -117 -47 -65 -116 -157 -151 -205 l-65 -87 -29 20 c-44 31 -70 91
-69 160 0 90 27 139 178 325 18 23 33 46 33 51 0 6 -25 29 -55 52 -30 23 -55
45 -55 49 0 13 404 99 411 88 4 -6 10 -72 13 -146z m-143 -427 c58 -65 68
-176 24 -262 -14 -28 -37 -65 -53 -83 -58 -69 -132 -169 -132 -179 0 -4 28
-28 62 -53 34 -25 60 -46 57 -47 -2 0 -97 -22 -211 -48 l-207 -48 -6 51 c-8
80 -26 388 -22 392 1 2 30 -19 63 -46 32 -27 64 -49 69 -49 6 0 39 41 75 90
36 50 81 112 100 137 20 26 57 77 84 114 50 72 59 75 97 31z m669 -493 c-5
-63 -10 -145 -11 -182 -2 -63 -8 -78 -94 -250 -171 -340 -296 -638 -401 -959
l-48 -145 -106 -47 c-58 -26 -109 -47 -112 -47 -5 0 14 71 67 250 101 340 324
857 513 1190 55 96 194 312 198 307 1 -1 -2 -54 -6 -117z m-5674 -3437 c250
-164 454 -301 454 -305 0 -4 -25 -48 -56 -97 l-55 -90 -112 73 c-62 40 -192
126 -291 190 -98 65 -184 120 -190 122 -7 3 -43 -44 -85 -111 -40 -63 -75
-115 -77 -115 -4 0 -99 62 -132 85 -1 1 12 31 30 66 54 109 52 216 -7 293
l-34 44 46 71 c24 39 47 71 50 71 3 0 210 -134 459 -297z"/>
<path d="M9488 12437 c-57 -52 -134 -128 -172 -170 l-68 -77 -80 0 -80 0 4 90
3 89 -50 5 c-27 3 -93 8 -145 11 l-95 6 -131 -118 -131 -118 -8 -105 c-3 -58
-7 -125 -8 -150 l-2 -45 84 -5 84 -5 -2 -87 c-3 -103 -17 -94 165 -103 l121
-6 74 70 74 71 135 -6 c74 -3 141 -8 149 -10 11 -3 13 -20 9 -75 -4 -47 -2
-72 6 -74 6 -2 76 -8 156 -14 l145 -9 43 35 c34 28 42 41 42 68 0 27 9 41 49
77 l50 43 7 148 7 147 -42 0 c-49 0 -47 -15 -30 225 6 86 7 161 2 165 -4 4
-65 10 -135 14 l-126 6 -104 -93z m289 -1 c1 -1 -12 -209 -21 -323 l-5 -62 44
-7 c49 -7 50 -8 39 -88 l-7 -46 -43 0 -44 0 0 -59 c0 -96 -4 -100 -114 -85
l-46 7 0 72 0 72 -52 7 c-29 3 -78 6 -108 6 -30 0 -72 3 -92 6 l-38 7 7 76 6
76 161 176 161 177 75 -5 c41 -3 76 -6 77 -7z m-771 -225 l-7 -88 47 -7 c26
-3 64 -6 85 -6 l39 0 0 -70 0 -70 -90 7 -90 6 0 -34 c0 -19 -3 -58 -6 -86 l-7
-53 -65 0 -65 0 5 89 5 89 -84 7 -84 7 3 66 3 67 88 -4 87 -3 0 55 c0 30 3 69
6 86 6 31 7 31 72 31 l65 0 -7 -89z"/>
<path d="M9517 12178 c-99 -116 -99 -116 15 -117 l66 -1 7 83 c13 152 13 152
-88 35z"/>
<path d="M9618 13533 c6 -2 18 -2 25 0 6 3 1 5 -13 5 -14 0 -19 -2 -12 -5z"/>
<path d="M10537 13468 c67 -79 113 -191 113 -275 0 -32 -1 -33 -47 -34 l-48
-2 60 -7 c33 -4 102 -8 154 -9 l94 -1 -61 31 c-68 33 -101 70 -174 189 -26 41
-64 91 -84 110 l-38 35 31 -37z"/>
<path d="M9398 13483 c6 -2 18 -2 25 0 6 3 1 5 -13 5 -14 0 -19 -2 -12 -5z"/>
<path d="M9180 13440 l-25 -8 25 0 c14 0 36 4 50 8 l25 8 -25 0 c-14 0 -36 -4
-50 -8z"/>
<path d="M8628 13273 c17 -2 47 -2 65 0 17 2 3 4 -33 4 -36 0 -50 -2 -32 -4z"/>
<path d="M8788 13263 c17 -2 47 -2 65 0 17 2 3 4 -33 4 -36 0 -50 -2 -32 -4z"/>
<path d="M8958 13253 c18 -2 45 -2 60 0 15 2 0 4 -33 4 -33 0 -45 -2 -27 -4z"/>
<path d="M9118 13243 c17 -2 47 -2 65 0 17 2 3 4 -33 4 -36 0 -50 -2 -32 -4z"/>
<path d="M9288 13233 c17 -2 47 -2 65 0 17 2 3 4 -33 4 -36 0 -50 -2 -32 -4z"/>
<path d="M9448 13223 c17 -2 47 -2 65 0 17 2 3 4 -33 4 -36 0 -50 -2 -32 -4z"/>
<path d="M9618 13213 c18 -2 45 -2 60 0 15 2 0 4 -33 4 -33 0 -45 -2 -27 -4z"/>
<path d="M9785 13211 l-40 -6 32 -7 c18 -4 123 -9 235 -12 135 -3 176 -2 123
3 -44 5 -104 14 -134 20 -56 12 -148 12 -216 2z"/>
<path d="M10263 13173 c20 -2 54 -2 75 0 20 2 3 4 -38 4 -41 0 -58 -2 -37 -4z"/>
<path d="M10438 13163 c23 -2 59 -2 80 0 20 2 1 4 -43 4 -44 0 -61 -2 -37 -4z"/>
<path d="M10918 13133 c7 -3 16 -2 19 1 4 3 -2 6 -13 5 -11 0 -14 -3 -6 -6z"/>
<path d="M11738 13083 c7 -3 16 -2 19 1 4 3 -2 6 -13 5 -11 0 -14 -3 -6 -6z"/>
<path d="M11908 13073 c7 -3 16 -2 19 1 4 3 -2 6 -13 5 -11 0 -14 -3 -6 -6z"/>
<path d="M12888 12868 c53 -60 96 -146 115 -231 15 -65 12 -111 -49 -1055 -82
-1280 -113 -1739 -118 -1780 -5 -32 -2 -35 40 -53 24 -11 48 -18 53 -15 16 10
20 200 7 316 -19 163 -14 270 54 1325 66 1016 72 1150 51 1235 -23 94 -68 177
-133 243 -34 35 -43 41 -20 15z"/>
<path d="M4715 11374 c-181 -96 -339 -181 -351 -189 -12 -7 -28 -39 -39 -75
l-19 -62 52 -103 c78 -158 63 -156 292 -35 106 56 193 100 196 98 2 -2 -1 -42
-6 -89 -27 -230 2 -484 80 -713 32 -95 52 -126 82 -126 21 0 241 114 256 133
5 7 17 35 26 63 17 51 16 51 -13 121 -80 188 -120 381 -120 583 0 137 4 172
40 310 11 44 10 48 -34 137 -50 98 -69 123 -95 123 -9 0 -165 -79 -347 -176z
m387 31 l42 -84 -17 -53 c-41 -133 -46 -346 -13 -535 18 -102 67 -273 100
-346 l24 -55 -99 -52 c-54 -28 -103 -49 -108 -46 -21 14 -78 220 -102 371 -17
108 -15 377 4 495 9 52 15 96 14 97 -1 1 -103 -52 -227 -118 -123 -65 -227
-119 -230 -119 -12 0 -95 183 -85 187 6 2 152 80 325 173 173 93 318 169 323
169 4 1 26 -37 49 -84z"/>
<path d="M3248 11523 c7 -3 16 -2 19 1 4 3 -2 6 -13 5 -11 0 -14 -3 -6 -6z"/>
<path d="M3125 11480 c-3 -6 1 -7 9 -4 18 7 21 14 7 14 -6 0 -13 -4 -16 -10z"/>
<path d="M13218 10386 c-98 -40 -161 -106 -199 -205 -39 -103 -14 -223 68
-326 21 -27 48 -65 59 -83 23 -41 72 -72 111 -72 35 0 123 28 123 40 0 4 21
13 46 20 56 16 151 77 180 117 54 73 68 115 69 203 0 77 -3 92 -33 152 -58
119 -157 178 -295 178 -52 0 -88 -7 -129 -24z m210 -72 c87 -36 152 -137 151
-234 0 -30 -5 -67 -12 -82 l-12 -28 -45 36 c-25 20 -55 44 -68 54 l-23 18 26
28 c32 34 33 80 2 125 -32 48 -65 57 -140 37 -34 -9 -83 -25 -108 -36 l-47
-20 33 -99 c22 -65 29 -99 21 -102 -6 -2 -23 -15 -38 -29 l-28 -25 -17 39
c-38 87 -16 211 49 271 64 60 176 81 256 47z m-64 -110 c9 -4 16 -18 16 -34 0
-24 -6 -31 -45 -46 -27 -10 -49 -13 -54 -8 -8 10 -32 64 -28 64 1 0 20 7 42
15 47 17 49 17 69 9z m-10 -173 c3 -4 -6 -6 -19 -3 -14 2 -25 6 -25 8 0 8 39
4 44 -5z m112 -94 c7 -4 28 0 48 8 36 15 37 15 26 -4 -10 -20 -71 -71 -83 -71
-4 0 -7 8 -7 18 0 10 -9 35 -20 56 l-19 39 22 -20 c12 -11 27 -23 33 -26z"/>
<path d="M3182 10175 c-77 -39 -173 -132 -208 -201 -28 -58 -26 -189 4 -266
34 -83 106 -178 136 -178 15 0 54 27 111 76 85 75 87 77 80 113 -3 20 -19 58
-36 85 -23 38 -27 51 -18 62 19 23 45 16 78 -21 36 -41 36 -45 15 -213 -18
-147 -13 -250 17 -349 41 -131 112 -243 155 -243 19 0 87 52 257 196 128 108
235 205 239 215 12 31 -19 98 -78 171 -63 76 -93 91 -127 61 -12 -10 -55 -48
-96 -84 l-74 -64 7 40 c3 22 9 85 13 140 9 157 -31 279 -127 387 -102 115
-216 139 -348 73z m227 -41 c63 -32 133 -115 158 -189 20 -61 20 -153 0 -305
-15 -112 -13 -205 4 -216 5 -3 68 46 140 108 l132 112 43 -49 c24 -28 44 -55
44 -60 0 -6 -97 -94 -217 -195 l-216 -183 -20 24 c-29 36 -63 108 -76 164 -15
60 -16 201 -2 305 23 172 13 223 -63 305 -55 59 -92 61 -143 10 -32 -32 -35
-40 -30 -73 4 -20 21 -57 38 -81 l31 -45 -53 -48 c-85 -76 -84 -76 -121 -23
-18 26 -38 61 -45 78 -18 49 -15 127 7 175 45 99 202 212 296 212 23 0 62 -11
93 -26z"/>
<path d="M12489 9940 c-10 -32 -13 -59 -8 -64 18 -19 30 12 27 65 l-3 54 -16
-55z"/>
<path d="M5901 9754 c0 -11 3 -14 6 -6 3 7 2 16 -1 19 -3 4 -6 -2 -5 -13z"/>
<path d="M11826 9740 c-393 -45 -777 -206 -1116 -468 -374 -289 -693 -635
-872 -945 -28 -48 -52 -86 -54 -84 -2 1 -57 146 -124 322 -66 175 -122 320
-124 322 -2 2 -232 -82 -512 -187 l-509 -191 -243 -237 -243 -237 171 -454
c93 -250 169 -458 168 -461 -2 -4 -293 183 -648 416 -355 233 -652 423 -661
423 -17 1 -51 -12 -1192 -438 -384 -144 -703 -261 -710 -261 -13 0 -497 -480
-497 -493 0 -5 189 -511 419 -1125 231 -614 430 -1155 442 -1202 18 -67 23
-112 23 -217 1 -131 1 -132 -27 -161 -37 -39 -86 -52 -195 -52 -171 0 -305 62
-438 203 -55 58 -93 110 -126 174 -28 53 -221 552 -474 1224 -234 624 -430
1138 -435 1143 -5 6 -208 -65 -516 -179 l-508 -189 -238 -236 c-204 -201 -238
-239 -234 -260 5 -30 820 -2202 879 -2340 207 -491 548 -863 942 -1025 173
-71 329 -104 531 -112 464 -19 1043 179 1424 488 134 108 703 685 771 781 29
43 55 76 56 75 1 -1 46 -119 100 -262 53 -143 98 -262 100 -264 2 -2 235 83
517 189 l514 192 239 239 238 238 -189 501 c-103 275 -186 502 -184 505 3 2
316 -203 697 -456 381 -252 700 -459 708 -459 7 0 199 70 426 155 l412 154
239 239 238 238 -25 68 c-14 38 -26 70 -26 72 0 2 17 -3 37 -11 59 -25 248
-73 358 -91 136 -22 429 -22 590 0 633 90 1183 435 1627 1023 254 337 420 671
488 983 48 215 63 508 39 728 -56 517 -279 994 -639 1366 -333 344 -695 543
-1135 621 -108 19 -389 27 -499 15z m343 -140 c425 -38 798 -214 1125 -530
197 -191 336 -380 450 -614 250 -509 294 -1077 125 -1606 -41 -129 -165 -376
-244 -485 -253 -351 -618 -593 -1064 -706 -639 -162 -1271 20 -1756 506 -339
340 -559 792 -620 1275 -23 182 -17 484 14 650 39 204 84 340 176 525 134 270
333 495 588 665 261 174 602 294 912 320 134 11 169 11 294 0z m-2567 -1283
c81 -215 388 -1033 682 -1817 294 -784 536 -1431 538 -1439 2 -10 -82 -46
-297 -128 -165 -62 -309 -116 -321 -119 -25 -6 20 -36 -1294 836 -1370 908
-1303 865 -1298 838 3 -13 199 -538 436 -1168 237 -629 428 -1148 424 -1151
-9 -9 -736 -279 -749 -279 -6 0 -116 282 -246 628 -130 345 -438 1167 -686
1826 -248 660 -450 1201 -448 1202 1 1 159 61 351 133 l349 130 691 -452 c380
-249 936 -613 1236 -809 300 -196 546 -353 548 -349 2 5 -42 127 -97 272 -365
969 -732 1951 -729 1953 4 4 752 284 758 285 3 0 71 -176 152 -392z m-3117
-1947 c217 -578 410 -1099 429 -1158 74 -231 109 -440 109 -657 1 -585 -299
-1025 -888 -1306 -226 -107 -434 -172 -656 -205 -139 -20 -423 -15 -534 10
-478 108 -838 432 -1087 980 -22 50 -224 579 -449 1176 -279 743 -404 1087
-396 1091 35 19 749 281 753 276 3 -3 185 -483 405 -1068 219 -585 413 -1092
429 -1127 168 -359 484 -556 822 -513 313 40 584 229 688 479 71 168 79 386
22 602 -17 65 -200 568 -421 1154 -215 572 -391 1044 -391 1050 0 6 170 75
378 152 293 110 379 138 385 128 4 -7 185 -486 402 -1064z"/>
<path d="M11833 8796 c-211 -40 -406 -139 -552 -280 -300 -290 -376 -712 -215
-1196 154 -462 473 -788 846 -864 88 -18 272 -21 366 -6 210 34 430 146 578
294 261 261 343 631 235 1058 -126 499 -438 867 -831 978 -97 28 -321 36 -427
16z m-190 -607 c191 -28 347 -109 493 -256 211 -213 364 -570 381 -890 17
-308 -121 -463 -414 -463 -396 0 -729 285 -897 769 -58 166 -78 290 -74 450 3
131 4 139 36 203 51 105 129 159 262 184 84 16 125 16 213 3z"/>
<path d="M11463 8011 c-127 -33 -175 -134 -154 -320 44 -374 258 -738 510
-865 162 -82 383 -91 465 -18 77 69 75 279 -6 532 -65 201 -148 342 -282 475
-96 96 -180 148 -286 179 -64 19 -202 29 -247 17z"/>
<path d="M2772 9490 c-42 -36 -62 -62 -71 -89 -15 -53 -15 -52 26 -106 l36
-48 -32 -29 c-37 -33 -61 -83 -61 -129 0 -23 13 -48 48 -90 68 -85 78 -86 167
-9 25 22 49 40 53 39 4 0 29 -27 55 -60 34 -41 56 -59 72 -59 24 0 138 88 148
114 12 30 -10 113 -38 150 l-29 38 48 41 c47 40 48 41 44 88 -5 46 -36 96
-100 161 -27 27 -42 23 -102 -27 -31 -25 -60 -45 -65 -45 -5 0 -28 25 -51 55
-29 38 -49 55 -65 55 -13 0 -49 -22 -83 -50z m138 -75 c31 -39 56 -62 63 -58
7 3 38 29 71 57 l59 50 33 -39 c32 -38 43 -65 27 -65 -5 0 -34 -24 -66 -53
l-57 -52 54 -65 c30 -36 55 -68 55 -71 1 -4 -19 -23 -42 -42 l-44 -36 -36 47
c-21 26 -46 58 -57 71 l-20 23 -66 -56 c-36 -31 -69 -56 -72 -56 -7 0 -50 51
-65 77 -4 6 19 32 58 64 36 29 65 57 65 62 0 5 -22 36 -50 69 -27 33 -50 63
-50 68 0 10 68 70 79 70 5 0 33 -29 61 -65z"/>
<path d="M14211 6849 c-81 -282 -220 -550 -403 -778 -72 -89 -660 -675 -765
-762 -118 -97 -258 -186 -418 -265 -233 -114 -471 -187 -713 -219 -211 -28
-524 -16 -704 26 l-48 11 -261 -259 c-143 -142 -272 -264 -286 -272 -14 -7
-217 -85 -451 -172 -431 -161 -474 -173 -535 -150 -13 5 -238 151 -500 325
-263 173 -477 311 -477 307 0 -5 43 -122 95 -261 98 -262 107 -302 81 -363 -8
-18 -135 -152 -282 -298 l-269 -266 -530 -198 c-291 -108 -544 -199 -562 -202
-52 -9 -97 5 -140 42 -34 29 -47 52 -88 162 -26 70 -50 132 -53 136 -2 5 -144
-130 -316 -301 -177 -176 -347 -336 -394 -370 -177 -131 -338 -219 -561 -309
-1051 -422 -1969 -97 -2475 877 -94 181 -54 80 -696 1790 -133 355 -250 660
-260 679 l-17 34 -17 -42 c-28 -72 -31 -147 -8 -237 22 -88 774 -2098 847
-2264 61 -140 153 -314 222 -419 195 -301 477 -555 763 -689 186 -87 302 -119
575 -157 206 -29 200 -27 472 -116 116 -38 276 -85 355 -104 688 -169 1468
-176 2293 -20 1510 286 3034 1126 4109 2263 76 81 215 239 309 352 247 296
267 313 508 440 163 87 266 154 399 261 120 96 631 602 737 729 173 208 313
459 397 710 42 126 111 429 103 453 -1 5 -18 -41 -36 -104z"/>
</g>
</svg>
